inDegrees=no
num_controls=7
num_derivatives=13
num_iterations=162
num_multipliers=7
num_parameters=0
num_slacks=7
num_states=26
objective=5.885991
objective_accelerations=0.780420
objective_balance=0.011887
objective_effort=0.524104
objective_height=4.545754
objective_ligament=0.023825
solver_duration=1351.900665
status=Solve_Succeeded
success=true
DataType=double
version=3
OpenSimVersion=4.4-2022-07-23-0e9fedc
endheader
time	/jointset/ground_pelvis/pelvis_tilt/value	/jointset/ground_pelvis/pelvis_tx/value	/jointset/ground_pelvis/pelvis_ty/value	/jointset/hip_r/hip_flexion_r/value	/jointset/hip_r/hip_adduction_r/value	/jointset/hip_r/hip_rotation_r/value	/jointset/back/lumbar_extension/value	/jointset/patellofemoral_r/patellar_flexion_r/value	/jointset/knee_r/knee_flexion_r/value	/jointset/knee_r/knee_adduction_r/value	/jointset/knee_r/knee_rotation_r/value	/jointset/ankle_r/ankle_angle_r/value	/jointset/subtalar_r/subtalar_angle_r/value	/jointset/ground_pelvis/pelvis_tilt/speed	/jointset/ground_pelvis/pelvis_tx/speed	/jointset/ground_pelvis/pelvis_ty/speed	/jointset/hip_r/hip_flexion_r/speed	/jointset/hip_r/hip_adduction_r/speed	/jointset/hip_r/hip_rotation_r/speed	/jointset/back/lumbar_extension/speed	/jointset/patellofemoral_r/patellar_flexion_r/speed	/jointset/knee_r/knee_flexion_r/speed	/jointset/knee_r/knee_adduction_r/speed	/jointset/knee_r/knee_rotation_r/speed	/jointset/ankle_r/ankle_angle_r/speed	/jointset/subtalar_r/subtalar_angle_r/speed	/forceset/tau_hip_flexion_r	/forceset/tau_hip_adduction_r	/forceset/tau_hip_rotation_r	/forceset/tau_knee_flexion_r	/forceset/tau_ankle_angle_r	/forceset/tau_subtalar_angle_r	/forceset/tau_lumbar_extension	lambda_cid13_p0	lambda_cid14_p0	lambda_cid14_p1	lambda_cid14_p2	lambda_cid14_p3	lambda_cid14_p4	lambda_cid14_p5	/jointset/ground_pelvis/pelvis_tilt/accel	/jointset/ground_pelvis/pelvis_tx/accel	/jointset/ground_pelvis/pelvis_ty/accel	/jointset/hip_r/hip_flexion_r/accel	/jointset/hip_r/hip_adduction_r/accel	/jointset/hip_r/hip_rotation_r/accel	/jointset/back/lumbar_extension/accel	/jointset/patellofemoral_r/patellar_flexion_r/accel	/jointset/knee_r/knee_flexion_r/accel	/jointset/knee_r/knee_adduction_r/accel	/jointset/knee_r/knee_rotation_r/accel	/jointset/ankle_r/ankle_angle_r/accel	/jointset/subtalar_r/subtalar_angle_r/accel	gamma_cid13_p0	gamma_cid14_p0	gamma_cid14_p1	gamma_cid14_p2	gamma_cid14_p3	gamma_cid14_p4	gamma_cid14_p5
1.5	-0.1110711507411417	0.01386516207384138	0.7890750937858597	0.9277443861581239	-0.2255218543147995	-0.1124026486333113	-0.6411131302909573	1.036072710662938	1.036072710662928	-0.06125414811618242	0.1745261160980629	0.3148300335073241	0.1425510474619419	0.5298907620451188	0.2440124874921318	0.6268198552193808	-2.321308392328277	0.03573685462848954	-0.249538302633627	0.7969556834271518	-2.213937191012754	-2.213937191012752	0.437375340444256	0.0001202467435434108	-0.5309243856792288	-0.1580833835850311	-0.1777628067711063	-0.004963513849125016	0.01978139706783869	-0.3270467996188322	0.03366277272550758	0.00415001757545645	0.2259194646171154	-4.769829056188088	-30.6326807152636	-3.174690139660371	0.4865697536549277	-6.854007272442973	-626.6340602176009	69.69387910147783	0.3579376061756072	0.7516934082273963	-0.6051792920887727	-1.223737647010975	-0.1724245367806974	-0.5309243290109815	2.078423023967767	-1.531113084276261	-1.531113084276231	0.5205683914668203	-0.02521910108610102	-0.8393553606775137	-0.453307669057466	2.833270792904459e-07	2.868596085328005e-07	-9.283099719309565e-07	2.567238098006327e-06	-5.325198380762728e-08	3.952444826494995e-07	-2.574333623756029e-07
1.51	-0.1057546112459406	0.01634259016631902	0.7953117468409271	0.9044722744121506	-0.2251743926030828	-0.1149241032580789	-0.6330414738521227	1.013859595968544	1.013859595968557	-0.05685202566842015	0.1745277810642648	0.3094793036325237	0.1409459048451207	0.5333319345999465	0.2514405863924761	0.6203706786295823	-2.332799982145546	0.03373952327178463	-0.2547322048620428	0.8172597675261707	-2.228369279323928	-2.228369279323926	0.4430393909883136	0.0001936592194015311	-0.5391281983299968	-0.1629121072545466	-0.1698632427009226	-0.005347561500808247	0.01960496911783926	-0.3215438051340083	0.03464729922398044	0.003158228103260349	0.2185381105187842	-5.670843840076022	-29.98613444767902	-3.40173146838935	0.4194085136392445	-6.762656931608701	-620.4489955541544	68.5976035152441	0.3244452769878916	0.7334981728510986	-0.6857186730358632	-1.064748862434686	-0.2156396763698005	-0.5101854682597289	1.98902558088343	-1.351835065611853	-1.351835065611802	0.5876274412620807	0.02105465261416424	-0.7968203116416571	-0.4927427179115546	2.568494849309936e-07	2.17723250969192e-07	-1.351844518188803e-06	2.011711262998885e-06	2.061578856761992e-08	3.975384110787256e-07	-6.604233816482308e-07
1.52	-0.1004062123858234	0.01889332525618251	0.8014797217639743	0.8810946709253313	-0.2248473546531816	-0.1174968093648382	-0.6247702516766955	0.9915116447188443	0.991511644718838	-0.05239360190411992	0.1745296668011555	0.3040493504123428	0.1392934573912019	0.5362626350288452	0.258673886969304	0.6130842288153218	-2.342406740496812	0.03165210226490871	-0.2597885990305709	0.8368688307457768	-2.240904502078057	-2.240904502078055	0.4486356037478399	0.0001644009229662856	-0.5467690547553753	-0.167544351004585	-0.1619636786307544	-0.005731609152517249	0.01942854116745665	-0.3160408106492246	0.03563182572244788	0.002166438631029253	0.211156756420443	-6.651241752650162	-29.3312595599302	-3.615933396063118	0.337199564804431	-6.711292488117802	-614.1703049885406	67.58205330210954	0.2558431809897694	0.7127337435240555	-0.7726339369811421	-0.8467713538103854	-0.1904424668144991	-0.5034227170327567	1.9394188480852	-1.151739972867351	-1.15173997286734	0.5070008345604277	-0.04575325554583906	-0.7267641155996651	-0.4140116851614902	2.407439507411838e-07	1.702937274665247e-07	-1.682898910809069e-06	1.624221661069749e-06	7.430419798375319e-08	4.047593134073704e-07	-9.649671423027934e-07
1.53	-0.09503111641694326	0.02151533431346963	0.8075707538123023	0.8576304154165409	-0.2245415106245356	-0.1201205001874451	-0.6163066525301734	0.9690476517865341	0.9690476517865135	-0.04788058265372058	0.1745311707416403	0.2985458312294469	0.1375959141219469	0.5386620228473163	0.2656860218179279	0.6049919502177894	-2.350120827910267	0.02950966786885004	-0.2649640446544947	0.8557137886578283	-2.251580972547005	-2.251580972546999	0.4539203266456926	0.0001319907978960033	-0.5538389992111644	-0.1719183542639118	-0.1539563648840848	-0.006829899184490985	0.01930282196182749	-0.31109300465357	0.03671825861361649	0.001348144939600558	0.203688052970519	-7.709848679742944	-28.65985215236934	-3.722608539173768	0.2044003820615296	-6.609070550706486	-608.3242432964103	66.94480644963063	0.2178165196863219	0.689192717973409	-0.846974639278977	-0.6851816920713626	-0.2271483968157171	-0.5264230679908641	1.836452777693701	-0.9786803959838555	-0.9786803959832244	0.5317339623839853	0.01755693020835759	-0.6826651380637397	-0.4423691447889737	2.35658730481619e-07	1.459277151536071e-07	-1.915693140189407e-06	1.415271619286311e-06	1.065520342558281e-07	4.172151255041474e-07	-1.164911753175663e-06
